<svg xmlns="http://www.w3.org/2000/svg" viewBox="0 0 64 64">
  <!-- ???????? -->
  <rect width="64" height="64" fill="#a08060"/>
  <path d="M32 4 L60 32 L32 60 L4 32 Z" fill="#8b7355" stroke="#6b5344" stroke-width="1"/>
  <!-- ????? -->
  <path d="M32 12 L52 26 L52 42 L32 54 L12 42 L12 26 Z" fill="#8a8a8a" stroke="#5a5a5a" stroke-width="1"/>
  <!-- ???????? -->
  <path d="M32 20 L44 28 L44 40 L32 46 L20 40 L20 28 Z" fill="#9e9e9e" stroke="#7a7a7a" stroke-width="0.5"/>
  <!-- ????? -->
  <path d="M28 24 L36 24 L38 36 L26 36 Z" fill="#b8a898" stroke="#8a7a6a" stroke-width="1"/>
  <path d="M30 18 L34 18 L35 24 L29 24 Z" fill="#d4c8b8" stroke="#a89888" stroke-width="0.5"/>
  <!-- ?? -->
  <path d="M32 14 L36 20 L32 24 L28 20 Z" fill="#6b4a3a" stroke="#4a3528" stroke-width="0.5"/>
  <!-- ???? -->
  <path d="M18 30 L24 34 L24 42 L18 46 L12 42 L12 34 Z" fill="#8e8e8e" stroke="#6e6e6e" stroke-width="0.5"/>
  <path d="M40 30 L46 34 L46 42 L40 46 L34 42 L34 34 Z" fill="#8e8e8e" stroke="#6e6e6e" stroke-width="0.5"/>
  <!-- ???? -->
  <line x1="32" y1="14" x2="32" y2="6" stroke="#5a4a3a" stroke-width="1.5"/>
  <path d="M32 6 L38 10 L32 14 L32 10 Z" fill="#d4a82a"/>
</svg>
